# MagicaVoxel @ Ephtracy

# material
mtllib CommandCenterSmall1.mtl
usemtl palette

# normals
vn -1 0 0
vn 1 0 0
vn 0 0 1
vn 0 0 -1
vn 0 -1 0
vn 0 1 0

# texcoords
vt 0.939453 0.5
vt 0.943359 0.5

# verts
v -3.5 3 7
v -3.5 3 -7
v -3.5 4 7
v -3.5 4 -7
v -3.5 6 7
v -3.5 6 -7
v -3.5 7 6
v -3.5 7 -6
v -3.5 8 6
v -3.5 8 -6
v -3.5 9 7
v -3.5 9 3
v -3.5 9 -3
v -3.5 9 -7
v -3.5 10 3
v -3.5 10 -3
v -2.5 4 7
v -2.5 4 -7
v -2.5 5 6
v -2.5 5 -6
v -2.5 6 7
v -2.5 6 6
v -2.5 6 -6
v -2.5 6 -7
v -2.5 7 6
v -2.5 7 -6
v -2.5 8 6
v -2.5 8 -6
v -1.5 5 6
v -1.5 5 -6
v -1.5 6 6
v -1.5 6 -6
v -1.5 8 6
v -1.5 8 3
v -1.5 8 -3
v -1.5 8 -6
v -1.5 9 7
v -1.5 9 6
v -1.5 9 -6
v -1.5 9 -7
v -1.5 10 7
v -1.5 10 3
v -1.5 10 -3
v -1.5 10 -7
v -0.5 9 1
v -0.5 9 -1
v -0.5 10 1
v -0.5 10 -1
v 0.5 9 6
v 0.5 9 3
v 0.5 9 -3
v 0.5 9 -6
v 0.5 10 6
v 0.5 10 3
v 0.5 10 -3
v 0.5 10 -6
v 2.5 8 6
v 2.5 8 3
v 2.5 8 -3
v 2.5 8 -6
v 2.5 9 6
v 2.5 9 3
v 2.5 9 2
v 2.5 9 -2
v 2.5 9 -3
v 2.5 9 -6
v 2.5 10 2
v 2.5 10 -2
v -2.5 8 6
v -2.5 8 3
v -2.5 8 -3
v -2.5 8 -6
v -2.5 9 6
v -2.5 9 3
v -2.5 9 2
v -2.5 9 -2
v -2.5 9 -3
v -2.5 9 -6
v -2.5 10 2
v -2.5 10 -2
v -0.5 9 6
v -0.5 9 3
v -0.5 9 -3
v -0.5 9 -6
v -0.5 10 6
v -0.5 10 3
v -0.5 10 -3
v -0.5 10 -6
v 0.5 9 1
v 0.5 9 -1
v 0.5 10 1
v 0.5 10 -1
v 1.5 5 6
v 1.5 5 -6
v 1.5 6 6
v 1.5 6 -6
v 1.5 8 6
v 1.5 8 3
v 1.5 8 -3
v 1.5 8 -6
v 1.5 9 7
v 1.5 9 6
v 1.5 9 -6
v 1.5 9 -7
v 1.5 10 7
v 1.5 10 3
v 1.5 10 -3
v 1.5 10 -7
v 2.5 4 7
v 2.5 4 -7
v 2.5 5 6
v 2.5 5 -6
v 2.5 6 7
v 2.5 6 6
v 2.5 6 -6
v 2.5 6 -7
v 2.5 7 6
v 2.5 7 -6
v 2.5 8 6
v 2.5 8 -6
v 3.5 3 7
v 3.5 3 -7
v 3.5 4 7
v 3.5 4 -7
v 3.5 6 7
v 3.5 6 -7
v 3.5 7 6
v 3.5 7 -6
v 3.5 8 6
v 3.5 8 -6
v 3.5 9 7
v 3.5 9 3
v 3.5 9 -3
v 3.5 9 -7
v 3.5 10 3
v 3.5 10 -3
v -3.5 3 7
v -3.5 4 7
v -3.5 6 7
v -3.5 9 7
v -2.5 4 7
v -2.5 6 7
v -1.5 9 7
v -1.5 10 7
v 1.5 9 7
v 1.5 10 7
v 2.5 4 7
v 2.5 6 7
v 3.5 3 7
v 3.5 4 7
v 3.5 6 7
v 3.5 9 7
v -3.5 9 3
v -3.5 10 3
v -2.5 8 3
v -2.5 9 3
v -1.5 8 3
v -1.5 10 3
v -0.5 9 3
v -0.5 10 3
v 0.5 9 3
v 0.5 10 3
v 1.5 8 3
v 1.5 10 3
v 2.5 8 3
v 2.5 9 3
v 3.5 9 3
v 3.5 10 3
v -0.5 9 1
v -0.5 10 1
v 0.5 9 1
v 0.5 10 1
v -2.5 9 -2
v -2.5 10 -2
v 2.5 9 -2
v 2.5 10 -2
v -3.5 7 -6
v -3.5 8 -6
v -2.5 5 -6
v -2.5 6 -6
v -2.5 7 -6
v -2.5 8 -6
v -2.5 9 -6
v -1.5 5 -6
v -1.5 6 -6
v -1.5 8 -6
v -1.5 9 -6
v -0.5 9 -6
v -0.5 10 -6
v 0.5 9 -6
v 0.5 10 -6
v 1.5 5 -6
v 1.5 6 -6
v 1.5 8 -6
v 1.5 9 -6
v 2.5 5 -6
v 2.5 6 -6
v 2.5 7 -6
v 2.5 8 -6
v 2.5 9 -6
v 3.5 7 -6
v 3.5 8 -6
v -3.5 7 6
v -3.5 8 6
v -2.5 5 6
v -2.5 6 6
v -2.5 7 6
v -2.5 8 6
v -2.5 9 6
v -1.5 5 6
v -1.5 6 6
v -1.5 8 6
v -1.5 9 6
v -0.5 9 6
v -0.5 10 6
v 0.5 9 6
v 0.5 10 6
v 1.5 5 6
v 1.5 6 6
v 1.5 8 6
v 1.5 9 6
v 2.5 5 6
v 2.5 6 6
v 2.5 7 6
v 2.5 8 6
v 2.5 9 6
v 3.5 7 6
v 3.5 8 6
v -2.5 9 2
v -2.5 10 2
v 2.5 9 2
v 2.5 10 2
v -0.5 9 -1
v -0.5 10 -1
v 0.5 9 -1
v 0.5 10 -1
v -3.5 9 -3
v -3.5 10 -3
v -2.5 8 -3
v -2.5 9 -3
v -1.5 8 -3
v -1.5 10 -3
v -0.5 9 -3
v -0.5 10 -3
v 0.5 9 -3
v 0.5 10 -3
v 1.5 8 -3
v 1.5 10 -3
v 2.5 8 -3
v 2.5 9 -3
v 3.5 9 -3
v 3.5 10 -3
v -3.5 3 -7
v -3.5 4 -7
v -3.5 6 -7
v -3.5 9 -7
v -2.5 4 -7
v -2.5 6 -7
v -1.5 9 -7
v -1.5 10 -7
v 1.5 9 -7
v 1.5 10 -7
v 2.5 4 -7
v 2.5 6 -7
v 3.5 3 -7
v 3.5 4 -7
v 3.5 6 -7
v 3.5 9 -7
v -3.5 3 7
v 3.5 3 7
v -3.5 3 -7
v 3.5 3 -7
v -3.5 6 7
v -2.5 6 7
v 2.5 6 7
v 3.5 6 7
v -2.5 6 6
v -1.5 6 6
v 1.5 6 6
v 2.5 6 6
v -2.5 6 -6
v -1.5 6 -6
v 1.5 6 -6
v 2.5 6 -6
v -3.5 6 -7
v -2.5 6 -7
v 2.5 6 -7
v 3.5 6 -7
v -3.5 8 6
v -2.5 8 6
v 2.5 8 6
v 3.5 8 6
v -3.5 8 -6
v -2.5 8 -6
v 2.5 8 -6
v 3.5 8 -6
v -3.5 4 7
v -2.5 4 7
v 2.5 4 7
v 3.5 4 7
v -3.5 4 -7
v -2.5 4 -7
v 2.5 4 -7
v 3.5 4 -7
v -2.5 5 6
v -1.5 5 6
v 1.5 5 6
v 2.5 5 6
v -2.5 5 -6
v -1.5 5 -6
v 1.5 5 -6
v 2.5 5 -6
v -3.5 7 6
v -2.5 7 6
v 2.5 7 6
v 3.5 7 6
v -3.5 7 -6
v -2.5 7 -6
v 2.5 7 -6
v 3.5 7 -6
v -2.5 8 6
v -1.5 8 6
v 1.5 8 6
v 2.5 8 6
v -2.5 8 3
v -1.5 8 3
v 1.5 8 3
v 2.5 8 3
v -2.5 8 -3
v -1.5 8 -3
v 1.5 8 -3
v 2.5 8 -3
v -2.5 8 -6
v -1.5 8 -6
v 1.5 8 -6
v 2.5 8 -6
v -3.5 9 7
v -1.5 9 7
v 1.5 9 7
v 3.5 9 7
v -2.5 9 6
v -1.5 9 6
v -0.5 9 6
v 0.5 9 6
v 1.5 9 6
v 2.5 9 6
v -3.5 9 3
v -2.5 9 3
v -0.5 9 3
v 0.5 9 3
v 2.5 9 3
v 3.5 9 3
v -2.5 9 2
v 2.5 9 2
v -0.5 9 1
v 0.5 9 1
v -0.5 9 -1
v 0.5 9 -1
v -2.5 9 -2
v 2.5 9 -2
v -3.5 9 -3
v -2.5 9 -3
v -0.5 9 -3
v 0.5 9 -3
v 2.5 9 -3
v 3.5 9 -3
v -2.5 9 -6
v -1.5 9 -6
v -0.5 9 -6
v 0.5 9 -6
v 1.5 9 -6
v 2.5 9 -6
v -3.5 9 -7
v -1.5 9 -7
v 1.5 9 -7
v 3.5 9 -7
v -1.5 10 7
v 1.5 10 7
v -0.5 10 6
v 0.5 10 6
v -3.5 10 3
v -1.5 10 3
v -0.5 10 3
v 0.5 10 3
v 1.5 10 3
v 3.5 10 3
v -2.5 10 2
v 2.5 10 2
v -0.5 10 1
v 0.5 10 1
v -0.5 10 -1
v 0.5 10 -1
v -2.5 10 -2
v 2.5 10 -2
v -3.5 10 -3
v -1.5 10 -3
v -0.5 10 -3
v 0.5 10 -3
v 1.5 10 -3
v 3.5 10 -3
v -0.5 10 -6
v 0.5 10 -6
v -1.5 10 -7
v 1.5 10 -7

# faces
f 3/1/1 2/1/1 1/1/1
f 4/1/1 2/1/1 3/1/1
f 7/1/1 6/1/1 5/1/1
f 8/1/1 6/1/1 7/1/1
f 9/1/1 7/1/1 5/1/1
f 10/1/1 6/1/1 8/1/1
f 11/1/1 9/1/1 5/1/1
f 11/1/1 10/1/1 9/1/1
f 12/1/1 10/1/1 11/1/1
f 13/1/1 10/1/1 12/1/1
f 14/1/1 6/1/1 10/1/1
f 14/1/1 10/1/1 13/1/1
f 15/1/1 13/1/1 12/1/1
f 16/1/1 13/1/1 15/1/1
f 19/1/1 18/1/1 17/1/1
f 20/1/1 18/1/1 19/1/1
f 21/1/1 19/1/1 17/1/1
f 22/1/1 19/1/1 21/1/1
f 23/1/1 18/1/1 20/1/1
f 24/1/1 18/1/1 23/1/1
f 27/2/1 26/2/1 25/2/1
f 28/2/1 26/2/1 27/2/1
f 31/2/1 30/2/1 29/2/1
f 32/2/1 30/2/1 31/2/1
f 38/1/1 34/1/1 33/1/1
f 39/1/1 36/1/1 35/1/1
f 41/1/1 38/1/1 37/1/1
f 42/1/1 34/1/1 38/1/1
f 42/1/1 38/1/1 41/1/1
f 43/1/1 39/1/1 35/1/1
f 43/1/1 40/1/1 39/1/1
f 44/1/1 40/1/1 43/1/1
f 47/1/1 46/1/1 45/1/1
f 48/1/1 46/1/1 47/1/1
f 53/1/1 50/1/1 49/1/1
f 54/1/1 50/1/1 53/1/1
f 55/1/1 52/1/1 51/1/1
f 56/1/1 52/1/1 55/1/1
f 61/1/1 58/1/1 57/1/1
f 62/1/1 58/1/1 61/1/1
f 65/1/1 60/1/1 59/1/1
f 66/1/1 60/1/1 65/1/1
f 67/1/1 64/1/1 63/1/1
f 68/1/1 64/1/1 67/1/1
f 69/1/2 70/1/2 73/1/2
f 73/1/2 70/1/2 74/1/2
f 71/1/2 72/1/2 77/1/2
f 77/1/2 72/1/2 78/1/2
f 75/1/2 76/1/2 79/1/2
f 79/1/2 76/1/2 80/1/2
f 81/1/2 82/1/2 85/1/2
f 85/1/2 82/1/2 86/1/2
f 83/1/2 84/1/2 87/1/2
f 87/1/2 84/1/2 88/1/2
f 89/1/2 90/1/2 91/1/2
f 91/1/2 90/1/2 92/1/2
f 93/2/2 94/2/2 95/2/2
f 95/2/2 94/2/2 96/2/2
f 97/1/2 98/1/2 102/1/2
f 99/1/2 100/1/2 103/1/2
f 101/1/2 102/1/2 105/1/2
f 102/1/2 98/1/2 106/1/2
f 105/1/2 102/1/2 106/1/2
f 99/1/2 103/1/2 107/1/2
f 103/1/2 104/1/2 107/1/2
f 107/1/2 104/1/2 108/1/2
f 109/1/2 110/1/2 111/1/2
f 111/1/2 110/1/2 112/1/2
f 109/1/2 111/1/2 113/1/2
f 113/1/2 111/1/2 114/1/2
f 112/1/2 110/1/2 115/1/2
f 115/1/2 110/1/2 116/1/2
f 117/2/2 118/2/2 119/2/2
f 119/2/2 118/2/2 120/2/2
f 121/1/2 122/1/2 123/1/2
f 123/1/2 122/1/2 124/1/2
f 125/1/2 126/1/2 127/1/2
f 127/1/2 126/1/2 128/1/2
f 125/1/2 127/1/2 129/1/2
f 128/1/2 126/1/2 130/1/2
f 125/1/2 129/1/2 131/1/2
f 129/1/2 130/1/2 131/1/2
f 131/1/2 130/1/2 132/1/2
f 132/1/2 130/1/2 133/1/2
f 130/1/2 126/1/2 134/1/2
f 133/1/2 130/1/2 134/1/2
f 132/1/2 133/1/2 135/1/2
f 135/1/2 133/1/2 136/1/2
f 141/1/3 138/1/3 137/1/3
f 142/1/3 140/1/3 139/1/3
f 143/1/3 140/1/3 142/1/3
f 143/1/3 142/1/3 141/1/3
f 145/1/3 143/1/3 141/1/3
f 145/1/3 144/1/3 143/1/3
f 146/1/3 144/1/3 145/1/3
f 147/1/3 141/1/3 137/1/3
f 147/1/3 145/1/3 141/1/3
f 148/1/3 145/1/3 147/1/3
f 149/1/3 147/1/3 137/1/3
f 150/1/3 147/1/3 149/1/3
f 151/1/3 145/1/3 148/1/3
f 152/1/3 145/1/3 151/1/3
f 156/1/3 154/1/3 153/1/3
f 157/1/3 156/1/3 155/1/3
f 158/1/3 154/1/3 156/1/3
f 158/1/3 156/1/3 157/1/3
f 161/1/3 160/1/3 159/1/3
f 162/1/3 160/1/3 161/1/3
f 165/1/3 164/1/3 163/1/3
f 166/1/3 164/1/3 165/1/3
f 167/1/3 164/1/3 166/1/3
f 168/1/3 164/1/3 167/1/3
f 171/1/3 170/1/3 169/1/3
f 172/1/3 170/1/3 171/1/3
f 175/1/3 174/1/3 173/1/3
f 176/1/3 174/1/3 175/1/3
f 181/1/3 178/1/3 177/1/3
f 182/1/3 178/1/3 181/1/3
f 184/1/3 180/1/3 179/1/3
f 185/1/3 180/1/3 184/1/3
f 186/1/3 183/1/3 182/1/3
f 187/1/3 183/1/3 186/1/3
f 190/1/3 189/1/3 188/1/3
f 191/1/3 189/1/3 190/1/3
f 196/1/3 193/1/3 192/1/3
f 197/1/3 193/1/3 196/1/3
f 199/1/3 195/1/3 194/1/3
f 200/1/3 195/1/3 199/1/3
f 201/1/3 199/1/3 198/1/3
f 202/1/3 199/1/3 201/1/3
f 203/1/4 204/1/4 207/1/4
f 207/1/4 204/1/4 208/1/4
f 205/1/4 206/1/4 210/1/4
f 210/1/4 206/1/4 211/1/4
f 208/1/4 209/1/4 212/1/4
f 212/1/4 209/1/4 213/1/4
f 214/1/4 215/1/4 216/1/4
f 216/1/4 215/1/4 217/1/4
f 218/1/4 219/1/4 222/1/4
f 222/1/4 219/1/4 223/1/4
f 220/1/4 221/1/4 225/1/4
f 225/1/4 221/1/4 226/1/4
f 224/1/4 225/1/4 227/1/4
f 227/1/4 225/1/4 228/1/4
f 229/1/4 230/1/4 231/1/4
f 231/1/4 230/1/4 232/1/4
f 233/1/4 234/1/4 235/1/4
f 235/1/4 234/1/4 236/1/4
f 237/1/4 238/1/4 240/1/4
f 239/1/4 240/1/4 241/1/4
f 240/1/4 238/1/4 242/1/4
f 241/1/4 240/1/4 242/1/4
f 243/1/4 244/1/4 245/1/4
f 245/1/4 244/1/4 246/1/4
f 247/1/4 248/1/4 249/1/4
f 249/1/4 248/1/4 250/1/4
f 250/1/4 248/1/4 251/1/4
f 251/1/4 248/1/4 252/1/4
f 253/1/4 254/1/4 257/1/4
f 255/1/4 256/1/4 258/1/4
f 258/1/4 256/1/4 259/1/4
f 257/1/4 258/1/4 259/1/4
f 257/1/4 259/1/4 261/1/4
f 259/1/4 260/1/4 261/1/4
f 261/1/4 260/1/4 262/1/4
f 253/1/4 257/1/4 263/1/4
f 257/1/4 261/1/4 263/1/4
f 263/1/4 261/1/4 264/1/4
f 253/1/4 263/1/4 265/1/4
f 265/1/4 263/1/4 266/1/4
f 264/1/4 261/1/4 267/1/4
f 267/1/4 261/1/4 268/1/4
f 271/1/5 270/1/5 269/1/5
f 272/1/5 270/1/5 271/1/5
f 277/1/5 274/1/5 273/1/5
f 280/1/5 276/1/5 275/1/5
f 281/1/5 278/1/5 277/1/5
f 281/1/5 277/1/5 273/1/5
f 282/1/5 278/1/5 281/1/5
f 283/1/5 280/1/5 279/1/5
f 284/1/5 276/1/5 280/1/5
f 284/1/5 280/1/5 283/1/5
f 285/1/5 281/1/5 273/1/5
f 286/1/5 281/1/5 285/1/5
f 287/1/5 276/1/5 284/1/5
f 288/1/5 276/1/5 287/1/5
f 293/1/5 290/1/5 289/1/5
f 294/1/5 290/1/5 293/1/5
f 295/1/5 292/1/5 291/1/5
f 296/1/5 292/1/5 295/1/5
f 297/1/6 298/1/6 301/1/6
f 301/1/6 298/1/6 302/1/6
f 299/1/6 300/1/6 303/1/6
f 303/1/6 300/1/6 304/1/6
f 305/1/6 306/1/6 309/1/6
f 309/1/6 306/1/6 310/1/6
f 307/1/6 308/1/6 311/1/6
f 311/1/6 308/1/6 312/1/6
f 313/1/6 314/1/6 317/1/6
f 317/1/6 314/1/6 318/1/6
f 315/1/6 316/1/6 319/1/6
f 319/1/6 316/1/6 320/1/6
f 321/2/6 322/2/6 325/2/6
f 325/2/6 322/2/6 326/2/6
f 323/2/6 324/2/6 327/2/6
f 327/2/6 324/2/6 328/2/6
f 329/2/6 330/2/6 333/2/6
f 333/2/6 330/2/6 334/2/6
f 331/2/6 332/2/6 335/2/6
f 335/2/6 332/2/6 336/2/6
f 337/1/6 338/1/6 341/1/6
f 341/1/6 338/1/6 342/1/6
f 339/1/6 340/1/6 345/1/6
f 345/1/6 340/1/6 346/1/6
f 337/1/6 341/1/6 347/1/6
f 347/1/6 341/1/6 348/1/6
f 343/2/6 344/2/6 349/2/6
f 349/2/6 344/2/6 350/2/6
f 346/1/6 340/1/6 351/1/6
f 351/1/6 340/1/6 352/1/6
f 353/2/6 354/2/6 355/2/6
f 355/2/6 354/2/6 356/2/6
f 353/2/6 355/2/6 357/2/6
f 356/2/6 354/2/6 358/2/6
f 353/2/6 357/2/6 359/2/6
f 357/2/6 358/2/6 359/2/6
f 358/2/6 354/2/6 360/2/6
f 359/2/6 358/2/6 360/2/6
f 361/1/6 362/1/6 367/1/6
f 363/2/6 364/2/6 369/2/6
f 369/2/6 364/2/6 370/2/6
f 365/1/6 366/1/6 372/1/6
f 367/1/6 368/1/6 373/1/6
f 361/1/6 367/1/6 373/1/6
f 373/1/6 368/1/6 374/1/6
f 371/1/6 372/1/6 375/1/6
f 372/1/6 366/1/6 376/1/6
f 375/1/6 372/1/6 376/1/6
f 377/1/6 378/1/6 379/1/6
f 379/1/6 378/1/6 380/1/6
f 377/1/6 379/1/6 382/1/6
f 382/1/6 379/1/6 383/1/6
f 380/1/6 378/1/6 384/1/6
f 384/1/6 378/1/6 385/1/6
f 382/1/6 383/1/6 387/1/6
f 385/1/6 386/1/6 387/1/6
f 384/1/6 385/1/6 387/1/6
f 383/1/6 384/1/6 387/1/6
f 381/1/6 382/1/6 387/1/6
f 387/1/6 386/1/6 388/1/6
f 389/1/6 390/1/6 391/1/6
f 391/1/6 390/1/6 392/1/6
f 381/1/6 387/1/6 393/1/6
f 388/1/6 386/1/6 394/1/6
f 381/1/6 393/1/6 395/1/6
f 393/1/6 394/1/6 395/1/6
f 395/1/6 394/1/6 396/1/6
f 396/1/6 394/1/6 397/1/6
f 397/1/6 394/1/6 398/1/6
f 398/1/6 394/1/6 399/1/6
f 394/1/6 386/1/6 400/1/6
f 399/1/6 394/1/6 400/1/6
f 396/1/6 397/1/6 401/1/6
f 398/1/6 399/1/6 402/1/6
f 396/1/6 401/1/6 403/1/6
f 401/1/6 402/1/6 403/1/6
f 402/1/6 399/1/6 404/1/6
f 403/1/6 402/1/6 404/1/6
