# MagicaVoxel @ Ephtracy

# material
mtllib MissileSmall1.mtl
usemtl palette

# normals
vn -1 0 0
vn 1 0 0
vn 0 0 1
vn 0 0 -1
vn 0 -1 0
vn 0 1 0

# texcoords
vt 0.939453 0.5
vt 0.943359 0.5

# verts
v 3 4 2
v 3 4 -1
v 3 5 3
v 3 5 2
v 3 5 -1
v 3 5 -2
v 3 8 3
v 3 8 2
v 3 8 -1
v 3 8 -2
v 3 9 2
v 3 9 -1
v 4 5 2
v 4 5 1
v 4 5 -0
v 4 5 -1
v 4 6 2
v 4 6 -1
v 4 7 2
v 4 7 -1
v 4 8 2
v 4 8 1
v 4 8 -0
v 4 8 -1
v 5 4 2
v 5 4 1
v 5 4 -0
v 5 4 -1
v 5 5 3
v 5 5 2
v 5 5 1
v 5 5 -0
v 5 5 -1
v 5 5 -2
v 5 6 3
v 5 6 2
v 5 6 -1
v 5 6 -2
v 5 7 3
v 5 7 2
v 5 7 -1
v 5 7 -2
v 5 8 3
v 5 8 2
v 5 8 1
v 5 8 -0
v 5 8 -1
v 5 8 -2
v 5 9 2
v 5 9 1
v 5 9 -0
v 5 9 -1
v 3 5 3
v 3 8 3
v 4 6 3
v 4 7 3
v 5 5 3
v 5 6 3
v 5 7 3
v 5 8 3
v 3 4 2
v 3 5 2
v 3 8 2
v 3 9 2
v 5 4 2
v 5 5 2
v 5 8 2
v 5 9 2
v 4 5 -1
v 4 6 -1
v 4 7 -1
v 4 8 -1
v 5 5 -1
v 5 6 -1
v 5 7 -1
v 5 8 -1
v 4 5 2
v 4 6 2
v 4 7 2
v 4 8 2
v 5 5 2
v 5 6 2
v 5 7 2
v 5 8 2
v 3 4 -1
v 3 5 -1
v 3 8 -1
v 3 9 -1
v 5 4 -1
v 5 5 -1
v 5 8 -1
v 5 9 -1
v 3 5 -2
v 3 8 -2
v 4 6 -2
v 4 7 -2
v 5 5 -2
v 5 6 -2
v 5 7 -2
v 5 8 -2
v 3 4 2
v 5 4 2
v 4 4 1
v 5 4 1
v 4 4 -0
v 5 4 -0
v 3 4 -1
v 5 4 -1
v 3 5 3
v 5 5 3
v 3 5 2
v 5 5 2
v 3 5 -1
v 5 5 -1
v 3 5 -2
v 5 5 -2
v 4 8 2
v 5 8 2
v 4 8 1
v 5 8 1
v 4 8 -0
v 5 8 -0
v 4 8 -1
v 5 8 -1
v 4 5 2
v 5 5 2
v 4 5 1
v 5 5 1
v 4 5 -0
v 5 5 -0
v 4 5 -1
v 5 5 -1
v 3 8 3
v 5 8 3
v 3 8 2
v 5 8 2
v 3 8 -1
v 5 8 -1
v 3 8 -2
v 5 8 -2
v 3 9 2
v 5 9 2
v 4 9 1
v 5 9 1
v 4 9 -0
v 5 9 -0
v 3 9 -1
v 5 9 -1

# faces
f 4/1/1 2/1/1 1/1/1
f 5/1/1 2/1/1 4/1/1
f 7/1/1 4/1/1 3/1/1
f 8/2/1 5/2/1 4/2/1
f 8/1/1 4/1/1 7/1/1
f 9/1/1 6/1/1 5/1/1
f 9/2/1 5/2/1 8/2/1
f 10/1/1 6/1/1 9/1/1
f 11/1/1 9/1/1 8/1/1
f 12/1/1 9/1/1 11/1/1
f 13/2/2 14/2/2 17/2/2
f 15/2/2 16/2/2 17/2/2
f 14/2/2 15/2/2 17/2/2
f 17/2/2 16/2/2 18/2/2
f 17/2/2 18/2/2 19/2/2
f 19/2/2 18/2/2 20/2/2
f 19/2/2 20/2/2 21/2/2
f 21/2/2 20/2/2 22/2/2
f 22/2/2 20/2/2 23/2/2
f 23/2/2 20/2/2 24/2/2
f 25/1/2 26/1/2 30/1/2
f 26/2/2 27/2/2 31/2/2
f 30/1/2 26/1/2 31/1/2
f 27/1/2 28/1/2 32/1/2
f 31/2/2 27/2/2 32/2/2
f 32/1/2 28/1/2 33/1/2
f 29/1/2 30/1/2 35/1/2
f 35/1/2 30/1/2 36/1/2
f 33/1/2 34/1/2 37/1/2
f 37/1/2 34/1/2 38/1/2
f 35/2/2 36/2/2 39/2/2
f 39/2/2 36/2/2 40/2/2
f 37/2/2 38/2/2 41/2/2
f 41/2/2 38/2/2 42/2/2
f 39/1/2 40/1/2 43/1/2
f 43/1/2 40/1/2 44/1/2
f 41/1/2 42/1/2 47/1/2
f 47/1/2 42/1/2 48/1/2
f 44/1/2 45/1/2 49/1/2
f 45/2/2 46/2/2 50/2/2
f 49/1/2 45/1/2 50/1/2
f 46/1/2 47/1/2 51/1/2
f 50/2/2 46/2/2 51/2/2
f 51/1/2 47/1/2 52/1/2
f 55/1/3 54/1/3 53/1/3
f 56/1/3 54/1/3 55/1/3
f 57/1/3 55/1/3 53/1/3
f 58/2/3 56/2/3 55/2/3
f 58/1/3 55/1/3 57/1/3
f 59/1/3 54/1/3 56/1/3
f 59/2/3 56/2/3 58/2/3
f 60/1/3 54/1/3 59/1/3
f 65/1/3 62/1/3 61/1/3
f 66/1/3 62/1/3 65/1/3
f 67/1/3 64/1/3 63/1/3
f 68/1/3 64/1/3 67/1/3
f 73/1/3 70/1/3 69/1/3
f 74/2/3 71/2/3 70/2/3
f 74/1/3 70/1/3 73/1/3
f 75/1/3 72/1/3 71/1/3
f 75/2/3 71/2/3 74/2/3
f 76/1/3 72/1/3 75/1/3
f 77/1/4 78/1/4 81/1/4
f 78/2/4 79/2/4 82/2/4
f 81/1/4 78/1/4 82/1/4
f 79/1/4 80/1/4 83/1/4
f 82/2/4 79/2/4 83/2/4
f 83/1/4 80/1/4 84/1/4
f 85/1/4 86/1/4 89/1/4
f 89/1/4 86/1/4 90/1/4
f 87/1/4 88/1/4 91/1/4
f 91/1/4 88/1/4 92/1/4
f 93/1/4 94/1/4 95/1/4
f 95/1/4 94/1/4 96/1/4
f 93/1/4 95/1/4 97/1/4
f 95/2/4 96/2/4 98/2/4
f 97/1/4 95/1/4 98/1/4
f 96/1/4 94/1/4 99/1/4
f 98/2/4 96/2/4 99/2/4
f 99/1/4 94/1/4 100/1/4
f 103/1/5 102/1/5 101/1/5
f 104/1/5 102/1/5 103/1/5
f 105/1/5 103/1/5 101/1/5
f 105/2/5 104/2/5 103/2/5
f 106/2/5 104/2/5 105/2/5
f 107/1/5 105/1/5 101/1/5
f 107/1/5 106/1/5 105/1/5
f 108/1/5 106/1/5 107/1/5
f 111/1/5 110/1/5 109/1/5
f 112/1/5 110/1/5 111/1/5
f 115/1/5 114/1/5 113/1/5
f 116/1/5 114/1/5 115/1/5
f 119/1/5 118/1/5 117/1/5
f 120/1/5 118/1/5 119/1/5
f 121/2/5 120/2/5 119/2/5
f 122/2/5 120/2/5 121/2/5
f 123/1/5 122/1/5 121/1/5
f 124/1/5 122/1/5 123/1/5
f 125/1/6 126/1/6 127/1/6
f 127/1/6 126/1/6 128/1/6
f 127/2/6 128/2/6 129/2/6
f 129/2/6 128/2/6 130/2/6
f 129/1/6 130/1/6 131/1/6
f 131/1/6 130/1/6 132/1/6
f 133/1/6 134/1/6 135/1/6
f 135/1/6 134/1/6 136/1/6
f 137/1/6 138/1/6 139/1/6
f 139/1/6 138/1/6 140/1/6
f 141/1/6 142/1/6 143/1/6
f 143/1/6 142/1/6 144/1/6
f 141/1/6 143/1/6 145/1/6
f 143/2/6 144/2/6 145/2/6
f 145/2/6 144/2/6 146/2/6
f 141/1/6 145/1/6 147/1/6
f 145/1/6 146/1/6 147/1/6
f 147/1/6 146/1/6 148/1/6
