# MagicaVoxel @ Ephtracy

# material
mtllib BlasterSmall1Turret.mtl
usemtl palette

# normals
vn -1 0 0
vn 1 0 0
vn 0 0 1
vn 0 0 -1
vn 0 -1 0
vn 0 1 0

# texcoords
vt 0.939453 0.5
vt 0.943359 0.5

# verts
v 4 5 -0
v 4 5 -1
v 4 6 1
v 4 6 -0
v 4 6 -1
v 4 6 -2
v 4 7 1
v 4 7 -0
v 4 7 -1
v 4 7 -2
v 4 8 -0
v 4 8 -1
v 5 7 -0
v 5 7 -1
v 5 8 -0
v 5 8 -1
v 7 6 1
v 7 6 -0
v 7 6 -1
v 7 6 -2
v 7 7 1
v 7 7 -0
v 7 7 -1
v 7 7 -2
v 9 5 -0
v 9 5 -1
v 9 6 -0
v 9 6 -1
v 12 6 -0
v 12 6 -1
v 12 7 -0
v 12 7 -1
v 4 6 1
v 4 7 1
v 7 6 1
v 7 7 1
v 4 5 -0
v 4 6 -0
v 4 7 -0
v 4 8 -0
v 5 7 -0
v 5 8 -0
v 7 6 -0
v 7 7 -0
v 9 5 -0
v 9 6 -0
v 12 6 -0
v 12 7 -0
v 4 5 -1
v 4 6 -1
v 4 7 -1
v 4 8 -1
v 5 7 -1
v 5 8 -1
v 7 6 -1
v 7 7 -1
v 9 5 -1
v 9 6 -1
v 12 6 -1
v 12 7 -1
v 4 6 -2
v 4 7 -2
v 7 6 -2
v 7 7 -2
v 4 5 -0
v 9 5 -0
v 4 5 -1
v 9 5 -1
v 4 6 1
v 7 6 1
v 4 6 -0
v 7 6 -0
v 9 6 -0
v 12 6 -0
v 4 6 -1
v 7 6 -1
v 9 6 -1
v 12 6 -1
v 4 6 -2
v 7 6 -2
v 4 7 1
v 7 7 1
v 4 7 -0
v 5 7 -0
v 7 7 -0
v 12 7 -0
v 4 7 -1
v 5 7 -1
v 7 7 -1
v 12 7 -1
v 4 7 -2
v 7 7 -2
v 4 8 -0
v 5 8 -0
v 4 8 -1
v 5 8 -1

# faces
f 4/1/1 2/1/1 1/1/1
f 5/1/1 2/1/1 4/1/1
f 7/1/1 4/1/1 3/1/1
f 8/2/1 5/2/1 4/2/1
f 8/1/1 4/1/1 7/1/1
f 9/1/1 6/1/1 5/1/1
f 9/2/1 5/2/1 8/2/1
f 10/1/1 6/1/1 9/1/1
f 11/1/1 9/1/1 8/1/1
f 12/1/1 9/1/1 11/1/1
f 13/1/2 14/1/2 15/1/2
f 15/1/2 14/1/2 16/1/2
f 17/1/2 18/1/2 21/1/2
f 21/1/2 18/1/2 22/1/2
f 19/1/2 20/1/2 23/1/2
f 23/1/2 20/1/2 24/1/2
f 25/1/2 26/1/2 27/1/2
f 27/1/2 26/1/2 28/1/2
f 29/2/2 30/2/2 31/2/2
f 31/2/2 30/2/2 32/2/2
f 35/1/3 34/1/3 33/1/3
f 36/1/3 34/1/3 35/1/3
f 41/1/3 40/1/3 39/1/3
f 42/1/3 40/1/3 41/1/3
f 43/1/3 38/1/3 37/1/3
f 45/1/3 43/1/3 37/1/3
f 46/2/3 44/2/3 43/2/3
f 46/1/3 43/1/3 45/1/3
f 47/2/3 44/2/3 46/2/3
f 48/2/3 44/2/3 47/2/3
f 51/1/4 52/1/4 53/1/4
f 53/1/4 52/1/4 54/1/4
f 49/1/4 50/1/4 55/1/4
f 49/1/4 55/1/4 57/1/4
f 55/2/4 56/2/4 58/2/4
f 57/1/4 55/1/4 58/1/4
f 58/2/4 56/2/4 59/2/4
f 59/2/4 56/2/4 60/2/4
f 61/1/4 62/1/4 63/1/4
f 63/1/4 62/1/4 64/1/4
f 67/1/5 66/1/5 65/1/5
f 68/1/5 66/1/5 67/1/5
f 71/1/5 70/1/5 69/1/5
f 72/1/5 70/1/5 71/1/5
f 77/2/5 74/2/5 73/2/5
f 78/2/5 74/2/5 77/2/5
f 79/1/5 76/1/5 75/1/5
f 80/1/5 76/1/5 79/1/5
f 81/1/6 82/1/6 83/1/6
f 83/1/6 82/1/6 84/1/6
f 84/1/6 82/1/6 85/1/6
f 85/2/6 86/2/6 88/2/6
f 84/2/6 85/2/6 88/2/6
f 88/2/6 86/2/6 89/2/6
f 89/2/6 86/2/6 90/2/6
f 87/1/6 88/1/6 91/1/6
f 88/1/6 89/1/6 91/1/6
f 91/1/6 89/1/6 92/1/6
f 93/1/6 94/1/6 95/1/6
f 95/1/6 94/1/6 96/1/6
