# MagicaVoxel @ Ephtracy

# material
mtllib BlasterFighterProjectileSmall1.mtl
usemtl palette

# normals
vn -1 0 0
vn 1 0 0
vn 0 0 1
vn 0 0 -1
vn 0 -1 0
vn 0 1 0

# texcoords
vt 0.939453 0.5
vt 0.943359 0.5
vt 0.947266 0.5

# verts
v -1 6 2
v -1 6 1
v -1 6 -0
v -1 6 -1
v -1 7 2
v -1 7 1
v -1 7 -0
v -1 7 -1
v 0 5 1
v 0 5 -0
v 0 6 1
v 0 6 -0
v 0 7 2
v 0 7 1
v 0 7 -0
v 0 7 -1
v 0 8 2
v 0 8 1
v 0 8 -0
v 0 8 -1
v 0 9 1
v 0 9 -0
v 1 5 2
v 1 5 1
v 1 5 -0
v 1 5 -1
v 1 6 2
v 1 6 1
v 1 6 -0
v 1 6 -1
v 1 8 1
v 1 8 -0
v 1 9 1
v 1 9 -0
v 2 7 2
v 2 7 1
v 2 7 -0
v 2 7 -1
v 2 8 2
v 2 8 1
v 2 8 -0
v 2 8 -1
v 4 5 2
v 4 5 -1
v 4 6 2
v 4 6 1
v 4 6 -0
v 4 6 -1
v 4 7 1
v 4 7 -0
v 4 8 1
v 4 8 -0
v 6 6 2
v 6 6 1
v 6 6 -0
v 6 6 -1
v 6 7 2
v 6 7 1
v 6 7 -0
v 6 7 -1
v 8 6 1
v 8 6 -0
v 8 7 1
v 8 7 -0
v -1 6 2
v -1 7 2
v 0 7 2
v 0 8 2
v 1 5 2
v 1 6 2
v 2 7 2
v 2 8 2
v 4 5 2
v 4 6 2
v 6 6 2
v 6 7 2
v 0 5 1
v 0 6 1
v 0 8 1
v 0 9 1
v 1 5 1
v 1 6 1
v 1 8 1
v 1 9 1
v 2 7 1
v 2 8 1
v 4 7 1
v 4 8 1
v 6 6 1
v 6 7 1
v 8 6 1
v 8 7 1
v 0 5 -0
v 0 6 -0
v 0 8 -0
v 0 9 -0
v 1 5 -0
v 1 6 -0
v 1 8 -0
v 1 9 -0
v 2 7 -0
v 2 8 -0
v 4 7 -0
v 4 8 -0
v 6 6 -0
v 6 7 -0
v 8 6 -0
v 8 7 -0
v -1 6 -1
v -1 7 -1
v 0 7 -1
v 0 8 -1
v 1 5 -1
v 1 6 -1
v 2 7 -1
v 2 8 -1
v 4 5 -1
v 4 6 -1
v 6 6 -1
v 6 7 -1
v 1 5 2
v 4 5 2
v 0 5 1
v 1 5 1
v 0 5 -0
v 1 5 -0
v 1 5 -1
v 4 5 -1
v -1 6 2
v 1 6 2
v 4 6 2
v 6 6 2
v -1 6 1
v 0 6 1
v 1 6 1
v 4 6 1
v 6 6 1
v 8 6 1
v -1 6 -0
v 0 6 -0
v 1 6 -0
v 4 6 -0
v 6 6 -0
v 8 6 -0
v -1 6 -1
v 1 6 -1
v 4 6 -1
v 6 6 -1
v -1 7 2
v 0 7 2
v 2 7 2
v 6 7 2
v -1 7 1
v 0 7 1
v 2 7 1
v 4 7 1
v 6 7 1
v 8 7 1
v -1 7 -0
v 0 7 -0
v 2 7 -0
v 4 7 -0
v 6 7 -0
v 8 7 -0
v -1 7 -1
v 0 7 -1
v 2 7 -1
v 6 7 -1
v 0 8 2
v 2 8 2
v 0 8 1
v 1 8 1
v 2 8 1
v 4 8 1
v 0 8 -0
v 1 8 -0
v 2 8 -0
v 4 8 -0
v 0 8 -1
v 2 8 -1
v 0 9 1
v 1 9 1
v 0 9 -0
v 1 9 -0

# faces
f 5/1/1 2/1/1 1/1/1
f 6/3/1 3/3/1 2/3/1
f 6/1/1 2/1/1 5/1/1
f 7/1/1 4/1/1 3/1/1
f 7/3/1 3/3/1 6/3/1
f 8/1/1 4/1/1 7/1/1
f 11/1/1 10/1/1 9/1/1
f 12/1/1 10/1/1 11/1/1
f 17/1/1 14/1/1 13/1/1
f 18/2/1 15/2/1 14/2/1
f 18/1/1 14/1/1 17/1/1
f 19/1/1 16/1/1 15/1/1
f 19/2/1 15/2/1 18/2/1
f 20/1/1 16/1/1 19/1/1
f 21/2/1 19/2/1 18/2/1
f 22/2/1 19/2/1 21/2/1
f 27/1/1 24/1/1 23/1/1
f 28/1/1 24/1/1 27/1/1
f 29/1/1 26/1/1 25/1/1
f 30/1/1 26/1/1 29/1/1
f 31/2/2 32/2/2 33/2/2
f 33/2/2 32/2/2 34/2/2
f 35/1/2 36/1/2 39/1/2
f 39/1/2 36/1/2 40/1/2
f 37/1/2 38/1/2 41/1/2
f 41/1/2 38/1/2 42/1/2
f 43/1/2 44/1/2 45/1/2
f 45/1/2 44/1/2 46/1/2
f 46/1/2 44/1/2 47/1/2
f 47/1/2 44/1/2 48/1/2
f 49/1/2 50/1/2 51/1/2
f 51/1/2 50/1/2 52/1/2
f 53/1/2 54/1/2 57/1/2
f 57/1/2 54/1/2 58/1/2
f 55/1/2 56/1/2 59/1/2
f 59/1/2 56/1/2 60/1/2
f 61/2/2 62/2/2 63/2/2
f 63/2/2 62/2/2 64/2/2
f 67/1/3 66/1/3 65/1/3
f 70/1/3 67/1/3 65/1/3
f 70/1/3 68/1/3 67/1/3
f 71/1/3 68/1/3 70/1/3
f 71/1/3 70/1/3 69/1/3
f 72/1/3 68/1/3 71/1/3
f 73/1/3 71/1/3 69/1/3
f 74/1/3 71/1/3 73/1/3
f 75/1/3 71/1/3 74/1/3
f 76/1/3 71/1/3 75/1/3
f 81/1/3 78/1/3 77/1/3
f 82/1/3 78/1/3 81/1/3
f 83/2/3 80/2/3 79/2/3
f 84/2/3 80/2/3 83/2/3
f 87/1/3 86/1/3 85/1/3
f 88/1/3 86/1/3 87/1/3
f 91/2/3 90/2/3 89/2/3
f 92/2/3 90/2/3 91/2/3
f 93/1/4 94/1/4 97/1/4
f 97/1/4 94/1/4 98/1/4
f 95/2/4 96/2/4 99/2/4
f 99/2/4 96/2/4 100/2/4
f 101/1/4 102/1/4 103/1/4
f 103/1/4 102/1/4 104/1/4
f 105/2/4 106/2/4 107/2/4
f 107/2/4 106/2/4 108/2/4
f 109/1/4 110/1/4 111/1/4
f 109/1/4 111/1/4 114/1/4
f 111/1/4 112/1/4 114/1/4
f 114/1/4 112/1/4 115/1/4
f 113/1/4 114/1/4 115/1/4
f 115/1/4 112/1/4 116/1/4
f 113/1/4 115/1/4 117/1/4
f 117/1/4 115/1/4 118/1/4
f 118/1/4 115/1/4 119/1/4
f 119/1/4 115/1/4 120/1/4
f 124/1/5 122/1/5 121/1/5
f 125/1/5 124/1/5 123/1/5
f 126/1/5 122/1/5 124/1/5
f 126/1/5 124/1/5 125/1/5
f 127/1/5 122/1/5 126/1/5
f 128/1/5 122/1/5 127/1/5
f 133/1/5 130/1/5 129/1/5
f 134/1/5 130/1/5 133/1/5
f 135/1/5 130/1/5 134/1/5
f 136/1/5 132/1/5 131/1/5
f 137/1/5 132/1/5 136/1/5
f 139/3/5 134/3/5 133/3/5
f 140/3/5 134/3/5 139/3/5
f 142/2/5 138/2/5 137/2/5
f 142/2/5 137/2/5 136/2/5
f 143/2/5 138/2/5 142/2/5
f 144/2/5 138/2/5 143/2/5
f 145/1/5 141/1/5 140/1/5
f 145/1/5 140/1/5 139/1/5
f 146/1/5 141/1/5 145/1/5
f 147/1/5 143/1/5 142/1/5
f 148/1/5 143/1/5 147/1/5
f 149/1/6 150/1/6 153/1/6
f 153/1/6 150/1/6 154/1/6
f 151/1/6 152/1/6 155/1/6
f 155/1/6 152/1/6 156/1/6
f 156/1/6 152/1/6 157/1/6
f 153/3/6 154/3/6 159/3/6
f 159/3/6 154/3/6 160/3/6
f 157/2/6 158/2/6 162/2/6
f 156/2/6 157/2/6 162/2/6
f 162/2/6 158/2/6 163/2/6
f 163/2/6 158/2/6 164/2/6
f 159/1/6 160/1/6 165/1/6
f 165/1/6 160/1/6 166/1/6
f 161/1/6 162/1/6 167/1/6
f 162/1/6 163/1/6 167/1/6
f 167/1/6 163/1/6 168/1/6
f 169/1/6 170/1/6 171/1/6
f 171/1/6 170/1/6 172/1/6
f 172/1/6 170/1/6 173/1/6
f 173/1/6 174/1/6 176/1/6
f 172/1/6 173/1/6 176/1/6
f 176/1/6 174/1/6 177/1/6
f 177/1/6 174/1/6 178/1/6
f 175/1/6 176/1/6 179/1/6
f 176/1/6 177/1/6 179/1/6
f 179/1/6 177/1/6 180/1/6
f 181/2/6 182/2/6 183/2/6
f 183/2/6 182/2/6 184/2/6
